<svg xmlns="http://www.w3.org/2000/svg" style="display: none;">
    <!-- AI/ML Icon -->
    <symbol id="icon-ai" viewBox="0 0 24 24" fill="none" stroke="currentColor" stroke-width="2">
        <path d="M12 2L2 7l10 5 10-5-10-5z"/>
        <path d="M2 17l10 5 10-5M2 12l10 5 10-5"/>
        <circle cx="12" cy="12" r="2"/>
    </symbol>
    
    <!-- Backend Icon -->
    <symbol id="icon-backend" viewBox="0 0 24 24" fill="none" stroke="currentColor" stroke-width="2">
        <rect x="2" y="3" width="20" height="18" rx="2"/>
        <path d="M8 7h8M8 12h8M8 17h4"/>
    </symbol>
    
    <!-- Cloud Icon -->
    <symbol id="icon-cloud" viewBox="0 0 24 24" fill="none" stroke="currentColor" stroke-width="2">
        <path d="M18 10h-1.26A8 8 0 1 0 9 20h9a5 5 0 0 0 0-10z"/>
    </symbol>
    
    <!-- Frontend Icon -->
    <symbol id="icon-frontend" viewBox="0 0 24 24" fill="none" stroke="currentColor" stroke-width="2">
        <rect x="2" y="3" width="20" height="14" rx="2"/>
        <path d="M8 21h8M12 17v4"/>
    </symbol>
    
    <!-- Database Icon -->
    <symbol id="icon-database" viewBox="0 0 24 24" fill="none" stroke="currentColor" stroke-width="2">
        <ellipse cx="12" cy="5" rx="9" ry="3"/>
        <path d="M21 12c0 1.66-4 3-9 3s-9-1.34-9-3"/>
        <path d="M3 5v14c0 1.66 4 3 9 3s9-1.34 9-3V5"/>
    </symbol>
    
    <!-- DevOps Icon -->
    <symbol id="icon-devops" viewBox="0 0 24 24" fill="none" stroke="currentColor" stroke-width="2">
        <circle cx="12" cy="12" r="10"/>
        <path d="M12 2a15.3 15.3 0 0 1 4 10 15.3 15.3 0 0 1-4 10 15.3 15.3 0 0 1-4-10 15.3 15.3 0 0 1 4-10z"/>
    </symbol>
    
    <!-- Tools Icon -->
    <symbol id="icon-tools" viewBox="0 0 24 24" fill="none" stroke="currentColor" stroke-width="2">
        <path d="M14.7 6.3a1 1 0 0 0 0 1.4l1.6 1.6a1 1 0 0 0 1.4 0l3.77-3.77a6 6 0 0 1-7.94 7.94l-6.91 6.91a2.12 2.12 0 0 1-3-3l6.91-6.91a6 6 0 0 1 7.94-7.94l-3.76 3.76z"/>
    </symbol>
</svg>
